<svg xmlns="http://www.w3.org/2000/svg" style="display: none;">
  <!-- Calculator Icon -->
  <symbol id="icon-calculator" viewBox="0 0 24 24">
    <path d="M3 6a3 3 0 0 1 3-3h12a3 3 0 0 1 3 3v12a3 3 0 0 1-3 3H6a3 3 0 0 1-3-3V6zm3 2v8h12V8H6zm2 2h3v2H8v-2zm0 3h3v2H8v-2zm5-3h3v2h-3v-2zm0 3h3v2h-3v-2z"/>
  </symbol>

  <!-- Sun/Theme Icon -->
  <symbol id="icon-sun" viewBox="0 0 24 24">
    <path d="M12 3a1 1 0 0 1 1 1v2a1 1 0 1 1-2 0V4a1 1 0 0 1 1-1zm0 14a4 4 0 1 0 0-8 4 4 0 0 0 0 8zm8-4a1 1 0 0 1 1 1 1 1 0 0 1-1 1h-2a1 1 0 1 1 0-2h2zM6 13a1 1 0 1 1 0 2H4a1 1 0 1 1 0-2h2zm11.66-6.66a1 1 0 0 1 1.41 1.41l-1.41 1.42a1 1 0 1 1-1.42-1.42l1.42-1.41zM6.34 16.24a1 1 0 0 1 1.42 0l1.41 1.41a1 1 0 0 1-1.41 1.42L6.34 17.66a1 1 0 0 1 0-1.42zM18 12a6 6 0 1 1-6-6 5.94 5.94 0 0 1 6 6z"/>
  </symbol>

  <!-- Trash Icon -->
  <symbol id="icon-trash" viewBox="0 0 24 24">
    <path d="M6 7h12l-1 14H7L6 7zm4-3h4l1 2H9l1-2z"/>
  </symbol>
</svg>
